<svg width="48" height="48" viewBox="0 0 48 48" fill="none" xmlns="http://www.w3.org/2000/svg">
<path d="M19.0502 3.3901C19.7198 3.40756 20.3556 3.68774 20.8202 4.1701C21.2563 4.54102 21.5298 5.06794 21.5821 5.63801C21.6344 6.20808 21.4615 6.77598 21.1002 7.2201L19.7102 8.6101L28.0002 16.9301C29.4014 18.3774 31.3163 19.2145 33.3302 19.2601C34.2074 19.2679 35.0741 19.0693 35.8602 18.6801C36.1718 18.5284 36.5138 18.4498 36.8602 18.4501C37.187 18.4537 37.5098 18.5218 37.8101 18.6505C38.1104 18.7792 38.3823 18.966 38.6102 19.2001L38.8302 19.4201C39.2505 19.7907 39.5127 20.3083 39.5629 20.8663C39.6131 21.4244 39.4475 21.9804 39.1002 22.4201L32.1002 29.4201L43.8302 41.0501C44.2669 41.4228 44.5407 41.9514 44.593 42.5231C44.6453 43.0948 44.4721 43.6644 44.1102 44.1101C43.7659 44.4385 43.306 44.6182 42.8302 44.6101C42.1582 44.591 41.5198 44.3113 41.0502 43.8301L29.3802 32.2101L22.4702 39.1201C22.303 39.2851 22.1046 39.4152 21.8865 39.5028C21.6685 39.5904 21.4352 39.6336 21.2002 39.6301C20.5272 39.6152 19.8873 39.3349 19.4202 38.8501L19.2002 38.6301C18.8377 38.2853 18.5924 37.8354 18.4991 37.3438C18.4058 36.8522 18.4692 36.3438 18.6802 35.8901C19.8602 33.5501 19.2202 30.3301 16.9302 28.0301L8.61023 19.7101L7.22023 21.1001C6.89371 21.4185 6.45632 21.5978 6.00023 21.6001C5.66677 21.5938 5.33783 21.5217 5.03235 21.3878C4.72687 21.254 4.45087 21.061 4.22023 20.8201C3.78418 20.4492 3.51071 19.9223 3.45837 19.3522C3.40604 18.7821 3.57901 18.2142 3.94023 17.7701L17.7702 3.8901C18.1146 3.56165 18.5744 3.38202 19.0502 3.3901ZM19.0502 0.390096C18.4205 0.384276 17.7958 0.503225 17.2122 0.740081C16.6287 0.976936 16.0978 1.32701 15.6502 1.7701L1.77023 15.6501C1.30344 16.1498 0.940203 16.7369 0.701464 17.3777C0.462725 18.0184 0.353213 18.7001 0.379243 19.3834C0.405273 20.0667 0.566331 20.7381 0.853127 21.3588C1.13992 21.9796 1.54678 22.5374 2.05023 23.0001C3.10274 24.036 4.52353 24.6115 6.00023 24.6001C6.91204 24.6062 7.80681 24.3531 8.58023 23.8701L14.8602 30.1501C15.4723 30.6804 15.909 31.384 16.1126 32.1679C16.3161 32.9518 16.277 33.779 16.0002 34.5401C15.5058 35.5576 15.344 36.7049 15.5379 37.8194C15.7317 38.934 16.2713 39.9593 17.0802 40.7501L17.3002 40.9701C18.3313 42.0149 19.7325 42.6113 21.2002 42.6301C21.8286 42.6363 22.4518 42.5174 23.0338 42.2805C23.6158 42.0436 24.1448 41.6933 24.5902 41.2501L29.3902 36.4501L38.9402 46.0001C39.9723 47.0361 41.3681 47.6281 42.8302 47.6501C43.46 47.6559 44.0847 47.537 44.6682 47.3001C45.2518 47.0633 45.7827 46.7132 46.2302 46.2701C46.7251 45.7651 47.1033 45.1578 47.3383 44.4909C47.5733 43.824 47.6593 43.1138 47.5902 42.4101C47.4827 41.1001 46.9202 39.8689 46.0002 38.9301L36.4602 29.4301L41.3002 24.5901C41.7962 24.0862 42.1744 23.4788 42.4078 22.8114C42.6413 22.144 42.724 21.4332 42.6502 20.7301C42.5251 19.4271 41.9402 18.2111 41.0002 17.3001L40.7802 17.0801C40.2757 16.5651 39.6736 16.1557 39.0092 15.8759C38.3447 15.596 37.6312 15.4513 36.9102 15.4501C36.1061 15.4531 35.313 15.6377 34.5902 15.9901C34.2169 16.173 33.8059 16.2655 33.3902 16.2601C32.1722 16.2132 31.0206 15.693 30.1802 14.8101L23.8702 8.5301C24.4215 7.63171 24.6704 6.58028 24.5802 5.5301C24.4504 4.14381 23.815 2.85378 22.7951 1.90586C21.7753 0.957936 20.4423 0.418406 19.0502 0.390096V0.390096Z" fill="#1B344B"/>
</svg>
